<?xml version="1.0" encoding="UTF-8" standalone="no"?>
<!DOCTYPE svg PUBLIC "-//W3C//DTD SVG 1.1//EN" "http://www.w3.org/Graphics/SVG/1.1/DTD/svg11.dtd">
<svg width="100%" height="100%" viewBox="0 0 1080 320" version="1.1" xmlns="http://www.w3.org/2000/svg" xmlns:xlink="http://www.w3.org/1999/xlink" xml:space="preserve" xmlns:serif="http://www.serif.com/" style="fill-rule:evenodd;clip-rule:evenodd;stroke-linejoin:round;stroke-miterlimit:2;">
    <g transform="matrix(1,0,0,1,-0.005,-379.997)">
        <g>
            <ellipse cx="673.05" cy="558.03" rx="12.68" ry="12.76" style="fill:rgb(169,65,228);"/>
            <path d="M759.75,545.27C752.75,545.27 747.07,550.98 747.07,558.03C747.07,565.08 752.75,570.79 759.75,570.79C766.75,570.79 772.43,565.08 772.43,558.03C772.43,550.98 766.75,545.27 759.75,545.27Z" style="fill:rgb(169,65,228);fill-rule:nonzero;"/>
            <path d="M733.8,574.07L701.38,574.07C699.7,574.07 698.26,575.41 698.26,577.1L698.26,577.13C698.26,586.97 706.91,594.94 717.59,594.94C728.27,594.94 736.92,586.97 736.92,577.13L736.92,577.1C736.92,575.41 735.48,574.07 733.8,574.07Z" style="fill:rgb(169,65,228);fill-rule:nonzero;"/>
            <path d="M786.12,489.54L649.04,489.54C626.38,489.54 608.01,508.03 608.01,530.83L608.01,597.01C608.01,619.82 626.38,638.3 649.04,638.3L753.66,638.3L753.66,668.36C753.66,672.29 758.24,674.41 761.2,671.84L805.46,633.52C805.53,633.46 805.59,633.39 805.65,633.32C818.46,626.33 827.15,612.69 827.15,596.99L827.15,530.81C827.15,508 808.78,489.52 786.12,489.52L786.12,489.54ZM633.88,592.01L633.88,535.83C633.88,521.67 645.29,510.19 659.36,510.19L775.8,510.19C789.87,510.19 801.28,521.67 801.28,535.83L801.28,592.01C801.28,606.17 789.87,617.65 775.8,617.65L659.36,617.65C645.29,617.65 633.88,606.17 633.88,592.01Z" style="fill:rgb(169,65,228);fill-rule:nonzero;"/>
            <path d="M739.34,480.21C741.6,480.21 743.53,478.43 743.53,476.17L743.53,476.13C743.53,463.01 731.91,452.37 717.58,452.37C703.25,452.37 691.63,463.01 691.63,476.13L691.63,476.17C691.63,478.43 693.57,480.21 695.82,480.21L739.34,480.21Z" style="fill:rgb(169,65,228);fill-rule:nonzero;"/>
            <path d="M728.66,411.61C728.66,409.082 726.608,407.03 724.08,407.03L711.08,407.03C708.552,407.03 706.5,409.082 706.5,411.61L706.5,439.7C706.5,442.228 708.552,444.28 711.08,444.28L724.08,444.28C726.608,444.28 728.66,442.228 728.66,439.7L728.66,411.61Z" style="fill:rgb(169,65,228);"/>
            <path d="M210.51,478.1L156.94,478.1C146.4,478.1 141.14,473.28 141.14,463.64C141.14,460.96 141.54,458.2 142.35,455.34C143.15,452.49 144.09,450.34 145.16,448.91L298.1,448.91C308.64,448.91 313.9,453.73 313.9,463.37C313.9,466.05 313.5,468.82 312.7,471.67C311.89,474.53 310.96,476.67 309.89,478.1L242.39,478.1L242.39,632.65L230.71,632.65C219.55,632.65 210.51,623.61 210.51,612.45L210.51,478.1Z" style="fill:rgb(41,0,73);fill-rule:nonzero;"/>
            <path d="M332.18,470.06C328.7,466.49 326.96,462.03 326.96,456.67C326.96,451.31 328.7,446.85 332.18,443.28C335.66,439.71 340.08,437.92 345.44,437.92C350.8,437.92 355.22,439.71 358.7,443.28C362.18,446.85 363.92,451.31 363.92,456.67C363.92,462.03 362.18,466.49 358.7,470.06C355.22,473.63 350.8,475.42 345.44,475.42C340.08,475.42 335.66,473.64 332.18,470.06ZM360.71,632.65L330.18,632.65L330.18,512.38C330.18,507.74 331.69,504.21 334.74,501.8C337.77,499.39 341.7,498.18 346.53,498.18C349.03,498.18 351.62,498.45 354.3,498.98C356.98,499.52 359.12,500.23 360.73,501.12L360.73,632.63L360.71,632.65Z" style="fill:rgb(41,0,73);fill-rule:nonzero;"/>
            <path d="M423.91,632.65L393.38,632.65L393.38,449.44C393.38,444.8 394.89,441.27 397.94,438.86C400.97,436.45 404.9,435.24 409.73,435.24C412.23,435.24 414.82,435.51 417.5,436.04C420.18,436.57 422.32,437.29 423.93,438.18L423.93,632.64L423.91,632.65Z" style="fill:rgb(41,0,73);fill-rule:nonzero;"/>
            <path d="M447.61,449.44C447.61,444.8 449.12,441.27 452.17,438.86C455.2,436.45 459.13,435.24 463.96,435.24C466.46,435.24 469.05,435.51 471.73,436.04C474.41,436.57 476.55,437.29 478.16,438.18L478.16,515.05C483.16,508.62 489.55,503.58 497.31,499.92C505.08,496.26 513.87,494.43 523.69,494.43C536.55,494.43 548.15,497.51 558.51,503.67C568.86,509.83 577.08,518.23 583.15,528.85C589.22,539.48 592.26,551.66 592.26,565.41C592.26,579.16 589.13,591.39 582.88,602.1C576.63,612.81 567.97,621.21 556.9,627.28C545.83,633.35 532.97,636.39 518.33,636.39C503.69,636.39 491.36,633.31 480.83,627.15C470.29,620.99 462.12,612.11 456.32,600.5C450.51,588.89 447.61,575.05 447.61,558.98L447.61,449.43L447.61,449.44ZM549.13,533.54C541.45,525.51 531.54,521.49 519.4,521.49C507.26,521.49 497.3,525.51 489.53,533.54C481.76,541.58 477.88,552.11 477.88,565.15C477.88,578.19 481.76,588.72 489.53,596.76C497.3,604.8 507.25,608.81 519.4,608.81C531.55,608.81 541.45,604.79 549.13,596.76C556.81,588.72 560.65,578.19 560.65,565.15C560.65,552.11 556.81,541.58 549.13,533.54Z" style="fill:rgb(41,0,73);fill-rule:nonzero;"/>
            <path d="M847.79,473.43C847.79,468.79 849.3,465.26 852.35,462.85C855.38,460.44 859.31,459.23 864.14,459.23C866.64,459.23 869.23,459.5 871.91,460.03C874.59,460.57 876.73,461.28 878.34,462.17L878.34,497.26L917.18,497.26C927.89,497.26 933.25,501.99 933.25,511.46C933.25,516.64 932.08,521.28 929.77,525.39L878.34,525.39L878.34,584.85C878.34,592.35 880.31,598.16 884.23,602.26C888.16,606.37 893.96,608.42 901.64,608.42C905.92,608.42 910.34,607.8 914.9,606.55C919.46,605.3 923.34,603.6 926.55,601.46L938.87,621.82C934.22,625.75 927.93,629.01 919.99,631.6C912.04,634.19 903.87,635.48 895.48,635.48C881.02,635.48 869.45,631.51 860.79,623.56C852.13,615.62 847.8,604.86 847.8,591.28L847.8,473.43L847.79,473.43Z" style="fill:rgb(41,0,73);fill-rule:nonzero;"/>
        </g>
    </g>
</svg>
